HIERARCHY
ROOT Hips
{
	OFFSET 0.00000 0.00000 0.00000
	CHANNELS 6 Xposition Yposition Zposition Zrotation Yrotation Xrotation 
	JOINT LHipJoint
	{
		OFFSET 0 0 0
		CHANNELS 3 Zrotation Yrotation Xrotation
		JOINT LeftUpLeg
		{
			OFFSET 1.73240 -1.89999 0.57994
			CHANNELS 3 Zrotation Yrotation Xrotation
			JOINT LeftLeg
			{
				OFFSET 2.43106 -6.67930 0.00000
				CHANNELS 3 Zrotation Yrotation Xrotation
				JOINT LeftFoot
				{
					OFFSET 2.78854 -7.66147 0.00000
					CHANNELS 3 Zrotation Yrotation Xrotation
					JOINT LeftToeBase
					{
						OFFSET 0.17314 -0.47571 2.01064
						CHANNELS 3 Zrotation Yrotation Xrotation
						End Site
						{
							OFFSET 0.00000 -0.00000 1.04147
						}
					}
				}
			}
		}
	}
	JOINT RHipJoint
	{
		OFFSET 0 0 0
		CHANNELS 3 Zrotation Yrotation Xrotation
		JOINT RightUpLeg
		{
			OFFSET -1.57078 -1.89998 0.57994
			CHANNELS 3 Zrotation Yrotation Xrotation
			JOINT RightLeg
			{
				OFFSET -2.50166 -6.87326 0.00000
				CHANNELS 3 Zrotation Yrotation Xrotation
				JOINT RightFoot
				{
					OFFSET -2.77304 -7.61886 0.00000
					CHANNELS 3 Zrotation Yrotation Xrotation
					JOINT RightToeBase
					{
						OFFSET -0.23513 -0.64602 2.11039
						CHANNELS 3 Zrotation Yrotation Xrotation
						End Site
						{
							OFFSET -0.00000 -0.00000 1.10597
						}
					}
				}
			}
		}
	}
	JOINT LowerBack
	{
		OFFSET 0 0 0
		CHANNELS 3 Zrotation Yrotation Xrotation
		JOINT Spine
		{
			OFFSET -0.00908 2.00015 -0.35323
			CHANNELS 3 Zrotation Yrotation Xrotation
			JOINT Spine1
			{
				OFFSET 0.05647 2.02258 0.04270
				CHANNELS 3 Zrotation Yrotation Xrotation
				JOINT Neck
				{
					OFFSET 0 0 0
					CHANNELS 3 Zrotation Yrotation Xrotation
					JOINT Neck1
					{
						OFFSET -0.02074 1.73711 0.13117
						CHANNELS 3 Zrotation Yrotation Xrotation
						JOINT Head
						{
							OFFSET -0.02359 1.73615 -0.24320
							CHANNELS 3 Zrotation Yrotation Xrotation
							End Site
							{
								OFFSET -0.00579 1.75982 -0.09688
							}
						}
					}
				}
				JOINT LeftShoulder
				{
					OFFSET 0 0 0
					CHANNELS 3 Zrotation Yrotation Xrotation
					JOINT LeftArm
					{
						OFFSET 3.20537 1.11432 -0.27680
						CHANNELS 3 Zrotation Yrotation Xrotation
						JOINT LeftForeArm
						{
							OFFSET 5.05923 -0.00000 -0.00000
							CHANNELS 3 Zrotation Yrotation Xrotation
							JOINT LeftHand
							{
								OFFSET 3.51996 -0.00000 0.00000
								CHANNELS 3 Zrotation Yrotation Xrotation
								JOINT LeftFingerBase
								{
									OFFSET 0 0 0
									CHANNELS 3 Zrotation Yrotation Xrotation
									JOINT LeftHandIndex1
									{
										OFFSET 0.65238 -0.00000 0.00000
										CHANNELS 3 Zrotation Yrotation Xrotation
										End Site
										{
											OFFSET 0.52596 -0.00000 0.00000
										}
									}
								}
								JOINT LThumb
								{
									OFFSET 0 0 0
									CHANNELS 3 Zrotation Yrotation Xrotation
									End Site
									{
										OFFSET 0.53399 -0.00000 0.53399
									}
								}
							}
						}
					}
				}
				JOINT RightShoulder
				{
					OFFSET 0 0 0
					CHANNELS 3 Zrotation Yrotation Xrotation
					JOINT RightArm
					{
						OFFSET -2.96983 1.42602 -0.37449
						CHANNELS 3 Zrotation Yrotation Xrotation
						JOINT RightForeArm
						{
							OFFSET -5.40867 -0.00000 0.00000
							CHANNELS 3 Zrotation Yrotation Xrotation
							JOINT RightHand
							{
								OFFSET -3.12964 -0.00000 0.00000
								CHANNELS 3 Zrotation Yrotation Xrotation
								JOINT RightFingerBase
								{
									OFFSET 0 0 0
									CHANNELS 3 Zrotation Yrotation Xrotation
									JOINT RightHandIndex1
									{
										OFFSET -0.83271 -0.00000 0.00000
										CHANNELS 3 Zrotation Yrotation Xrotation
										End Site
										{
											OFFSET -0.67135 -0.00000 0.00000
										}
									}
								}
								JOINT RThumb
								{
									OFFSET 0 0 0
									CHANNELS 3 Zrotation Yrotation Xrotation
									End Site
									{
										OFFSET -0.68160 -0.00000 0.68160
									}
								}
							}
						}
					}
				}
			}
		}
	}
}
MOTION
Frames: 10
Frame Time: .0083333
-2.7221 18.1995 6.6831 0 0 0 0 0 0 -21 0 0 0 0 0 0 0 0 0 0 0 0 0 0 21 0 0 0 0 0 0 0 0 0 0 0 0 0 0 0 0 0 0 0 0 0 0 -16 0 0 21 0 0 11 0 0 0 -8 0 0 0 0 0 0 0 0 0 0 0 0 0 0 0 0 0 0 0 0 8 0 0 0 0 0 0 0 0 0 0 0 0 0 0 0 0 0
-2.7221 18.1995 6.6831 -177.8120 -1.7166 176.3980 0.0000 0.0000 0.0000 -20.2614 -7.1205 1.4111 1.5725 7.9122 22.4478 0.6771 2.2173 -16.5015 0.3600 -3.8544 -10.6673 0.0000 0.0000 0.0000 18.4499 5.1212 1.1731 -1.6987 -8.2081 23.3478 -0.5075 -10.5697 -21.1578 -0.0482 -1.4175 3.8984 -4.0642 1.3254 17.3894 3.8393 1.2107 -1.4190 6.2775 0.9286 -11.5809 0.2307 5.7378 -6.1566 -6.0433 7.4633 26.3061 -1.5295 2.0143 9.5407 -0.0000 0.0000 0.0000 -84.9483 14.2176 12.8883 26.8966 -38.0804 -9.4353 -0.0000 0.0000 -8.2320 12.8057 53.1663 10.3108 -7.1250 0.0000 -0.0000 -67.1216 76.0859 -53.3720 -0.0000 0.0000 0.0000 54.6093 -3.4475 -74.0249 -42.3463 49.4002 -20.2031 0.0000 -0.0000 -77.0333 -18.6315 1.4918 -0.5029 7.1250 -0.0000 -0.0000 6.1558 -28.3852 2.5025
-2.7229 18.1982 6.6794 -177.9430 -1.6150 176.3630 0.0000 0.0000 0.0000 -20.4196 -7.0243 1.5100 1.5618 7.8865 22.3699 0.6761 2.2671 -16.5153 0.3456 -3.7775 -10.4515 0.0000 0.0000 0.0000 18.2844 5.1242 1.1258 -1.7189 -8.2542 23.4889 -0.5096 -10.6038 -21.2131 -0.0353 -1.2120 3.3323 -4.2562 1.3356 17.4001 3.8047 1.1812 -1.3823 6.3574 0.9245 -11.5455 0.0047 5.3449 -6.8738 -6.1314 6.9650 26.9230 -1.5704 1.6907 9.8773 0.0000 -0.0000 0.0000 -85.0669 14.2876 12.7866 26.7953 -37.9833 -9.3728 -0.0000 0.0000 -8.2217 12.8300 52.3863 10.2265 -7.1250 0.0000 -0.0000 -64.0921 75.8549 -50.3700 0.0000 -0.0000 0.0000 54.6394 -3.4160 -73.7684 -42.2403 49.3426 -20.1227 0.0000 -0.0000 -76.8139 -18.5799 1.7309 -0.5817 7.1250 -0.0000 -0.0000 6.1829 -28.1347 2.5504
-2.7238 18.1966 6.6813 -177.9880 -1.6006 176.3000 0.0000 0.0000 0.0000 -20.4746 -6.9592 1.5618 1.5620 7.8871 22.3716 0.6775 2.2418 -16.5189 0.3463 -3.7809 -10.4612 0.0000 0.0000 0.0000 18.2251 5.1055 1.1570 -1.7264 -8.2713 23.5411 -0.5274 -10.5090 -21.2923 -0.0385 -1.2668 3.4831 -4.3570 1.3030 17.4652 3.7843 1.1082 -1.2916 6.4121 0.8896 -11.4713 -0.3632 4.9101 -7.4485 -6.0242 6.3848 27.3719 -1.5315 1.3547 10.1142 -0.0000 0.0000 0.0000 -85.1269 14.2392 12.7621 26.7477 -37.9376 -9.3436 -0.0000 0.0000 -8.2948 12.7220 51.8287 10.0645 -7.1250 0.0000 -0.0000 -62.0589 75.6170 -48.2983 -0.0000 0.0000 0.0000 54.7098 -3.1895 -73.6369 -42.1422 49.2891 -20.0483 0.0000 -0.0000 -76.4344 -18.6984 1.9946 -0.6749 7.1250 -0.0000 -0.0000 6.0780 -27.8571 2.5468
-2.7251 18.1956 6.6850 -178.0530 -1.5416 176.2480 0.0000 0.0000 0.0000 -20.5658 -6.9670 1.6061 1.5665 7.8979 22.4044 0.6783 2.2971 -16.5553 0.3416 -3.7557 -10.3905 0.0000 0.0000 0.0000 18.1557 5.1543 1.1800 -1.7329 -8.2860 23.5861 -0.5331 -10.4312 -21.2703 -0.0375 -1.2505 3.4382 -4.4769 1.2861 17.5850 3.7461 1.0518 -1.2552 6.4551 0.8690 -11.4929 -0.5685 4.3857 -7.4221 -6.1576 5.6717 27.3326 -1.6230 0.9834 10.0680 -0.0000 -0.0000 0.0000 -85.1497 14.3822 12.8070 26.7962 -37.9842 -9.3734 -0.0000 0.0000 -8.4299 12.8303 51.7257 10.1372 -7.1250 0.0000 -0.0000 -61.6196 75.6203 -47.9117 -0.0000 -0.0000 0.0000 54.8369 -3.1454 -73.3964 -42.0982 49.2650 -20.0149 0.0000 -0.0000 -76.2225 -18.8385 1.6351 -0.5578 7.1250 -0.0000 -0.0000 5.9884 -28.2337 2.4553
-2.7252 18.1948 6.6905 -177.8830 -1.3920 176.1910 0.0000 0.0000 0.0000 -20.3754 -6.8897 1.5857 1.5764 7.9215 22.4758 0.6788 2.3630 -16.5954 0.3518 -3.8110 -10.5456 0.0000 0.0000 0.0000 18.3692 5.2796 1.2321 -1.7335 -8.2874 23.5904 -0.5217 -10.5212 -21.2488 -0.0418 -1.3202 3.6304 -4.3894 1.2738 17.6779 3.8060 1.0498 -1.2098 6.4737 0.8606 -11.4944 -0.9268 3.8433 -7.3249 -6.2387 4.9394 27.2277 -1.6700 0.5975 9.9790 0.0000 -0.0000 0.0000 -85.2118 14.5015 12.8368 26.7710 -37.9599 -9.3579 -0.0000 0.0000 -8.5604 13.2207 51.2898 10.3881 -7.1250 0.0000 -0.0000 -59.7995 75.6013 -46.2858 0.0000 -0.0000 0.0000 54.9302 -3.1459 -73.1100 -42.0574 49.2427 -19.9840 0.0000 -0.0000 -76.0655 -18.5635 1.2239 -0.4110 7.1250 -0.0000 -0.0000 6.2234 -28.6664 2.4886
-2.7245 18.1934 6.6958 -177.7940 -1.3210 176.1950 0.0000 0.0000 0.0000 -20.2672 -6.8988 1.5262 1.5854 7.9431 22.5415 0.6791 2.3800 -16.6075 0.3505 -3.8039 -10.5255 0.0000 0.0000 0.0000 18.4772 5.3287 1.2126 -1.7304 -8.2803 23.5687 -0.5169 -10.5140 -21.1939 -0.0529 -1.4846 4.0833 -4.3711 1.2468 17.6010 3.8358 1.0143 -1.0851 6.5024 0.8307 -11.3035 -1.1411 3.3686 -7.5686 -6.3692 4.3370 27.2219 -1.7418 0.2802 10.0037 0.0000 -0.0000 0.0000 -85.2632 14.3731 12.8155 26.7363 -37.9266 -9.3366 -0.0000 0.0000 -8.5507 13.2365 51.3350 10.4072 -7.1250 0.0000 -0.0000 -59.9545 75.6256 -46.4472 0.0000 -0.0000 0.0000 55.0111 -2.8051 -73.2800 -42.0247 49.2247 -19.9592 0.0000 -0.0000 -75.3916 -18.0574 1.1719 -0.3821 7.1250 -0.0000 -0.0000 6.6188 -28.7215 2.6399
-2.7231 18.1922 6.6962 -177.7950 -1.2905 176.2270 0.0000 0.0000 0.0000 -20.2622 -6.9382 1.4898 1.5932 7.9616 22.5976 0.6808 2.3788 -16.6260 0.3365 -3.7277 -10.3119 0.0000 0.0000 0.0000 18.4616 5.2765 1.1584 -1.7280 -8.2749 23.5523 -0.5149 -10.4259 -21.0862 -0.0509 -1.4566 4.0061 -4.4742 1.2058 17.4472 3.8583 0.9394 -0.9794 6.6031 0.7902 -11.0870 -1.5411 2.8364 -7.2881 -6.3829 3.6198 26.8335 -1.7455 -0.0682 9.7787 -0.0000 0.0000 0.0000 -85.3680 14.3529 12.7277 26.7888 -37.9771 -9.3689 -0.0000 0.0000 -8.4361 12.9457 51.8551 10.2473 -7.1250 0.0000 -0.0000 -62.0346 75.7131 -48.3778 -0.0000 0.0000 0.0000 54.9811 -2.3928 -73.6990 -41.9440 49.1804 -19.8982 0.0000 -0.0000 -74.5250 -17.6603 1.0290 -0.3276 7.1250 -0.0000 -0.0000 6.9358 -28.8707 2.7432
-2.7259 18.1911 6.6940 -177.7880 -1.2572 176.2130 0.0000 0.0000 0.0000 -20.2965 -7.0037 1.5658 1.5948 7.9654 22.6092 0.6869 2.4351 -16.7234 0.3095 -3.5767 -9.8886 0.0000 0.0000 0.0000 18.4175 5.1369 1.1196 -1.7327 -8.2857 23.5852 -0.5230 -10.2841 -21.0246 -0.0411 -1.3079 3.5965 -4.4724 1.1575 17.4201 3.8682 0.8744 -0.9481 6.6296 0.7558 -11.0265 -1.8833 2.3772 -6.9642 -6.3064 2.9730 26.4803 -1.7177 -0.3702 9.5641 -0.0000 0.0000 0.0000 -85.4574 14.5231 12.7002 26.8763 -38.0610 -9.4228 -0.0000 0.0000 -8.3468 12.7242 52.2875 10.1280 -7.1250 0.0000 -0.0000 -63.7700 75.7808 -50.0013 -0.0000 0.0000 0.0000 54.9397 -2.3177 -73.7797 -41.7974 49.0995 -19.7873 0.0000 -0.0000 -74.1020 -17.4303 1.1408 -0.3581 7.1250 -0.0000 -0.0000 7.1069 -28.7541 2.8316
-2.7291 18.1898 6.6933 -177.8560 -1.2497 176.2140 0.0000 0.0000 0.0000 -20.4120 -7.0656 1.6079 1.5950 7.9660 22.6107 0.6892 2.4994 -16.7829 0.3196 -3.6338 -10.0487 0.0000 0.0000 0.0000 18.2785 4.9736 1.0399 -1.7405 -8.3034 23.6393 -0.5389 -10.0394 -20.9404 -0.0413 -1.3119 3.6074 -4.5214 1.1262 17.4267 3.8501 0.8164 -0.8697 6.6515 0.7238 -10.9335 -2.2767 1.9331 -7.2180 -6.1697 2.3907 26.4996 -1.6612 -0.6641 9.5989 -0.0000 -0.0000 0.0000 -85.5317 14.4935 12.6807 26.8727 -38.0575 -9.4205 -0.0000 0.0000 -8.1908 12.7267 52.6555 10.1791 -7.1250 0.0000 -0.0000 -65.1697 75.9027 -51.3949 -0.0000 -0.0000 0.0000 54.9912 -2.2159 -73.7048 -41.7486 49.0724 -19.7504 0.0000 -0.0000 -73.9124 -17.2168 1.5117 -0.4684 7.1250 -0.0000 -0.0000 7.2477 -28.3688 2.9552
